{
  "accessors": [
    {
      "bufferView": 2,
      "componentType": 5126,
      "count": 3731,
      "max": [
        54.991363525390625,
        54.953231811523438,
        15.981565475463867
      ],
      "min": [
        -55.000751495361328,
        -54.953231811523438,
        -15.981565475463867
      ],
      "type": "VEC3"
    },
    {
      "bufferView": 2,
      "byteOffset": 44772,
      "componentType": 5126,
      "count": 3731,
      "max": [
        1,
        0.99996250867843628,
        0.99936676025390625
      ],
      "min": [
        -1,
        -0.99996250867843628,
        -0.99936676025390625
      ],
      "type": "VEC3"
    },
    {
      "bufferView": 3,
      "componentType": 5126,
      "count": 3731,
      "max": [
        0,
        0,
        0,
        1
      ],
      "min": [
        0,
        0,
        0,
        1
      ],
      "type": "VEC4"
    },
    {
      "bufferView": 3,
      "byteOffset": 59696,
      "componentType": 5126,
      "count": 3731,
      "max": [
        0.17647059261798859,
        0.88235294818878174,
        0.7607843279838562,
        1
      ],
      "min": [
        0.17647059261798859,
        0.88235294818878174,
        0.7607843279838562,
        1
      ],
      "type": "VEC4"
    },
    {
      "bufferView": 1,
      "componentType": 5126,
      "count": 3731,
      "max": [
        0,
        0
      ],
      "min": [
        0,
        0
      ],
      "type": "VEC2"
    },
    {
      "bufferView": 0,
      "componentType": 5125,
      "count": 22386,
      "max": [
        3730
      ],
      "min": [
        0
      ],
      "type": "SCALAR"
    },
    {
      "bufferView": 2,
      "byteOffset": 89544,
      "componentType": 5126,
      "count": 5682,
      "max": [
        94.982093811035156,
        94.823989868164062,
        44.849132537841797
      ],
      "min": [
        -95.000129699707031,
        -94.823989868164062,
        -44.849132537841797
      ],
      "type": "VEC3"
    },
    {
      "bufferView": 2,
      "byteOffset": 157728,
      "componentType": 5126,
      "count": 5682,
      "max": [
        1,
        0.99933302402496338,
        0.99888300895690918
      ],
      "min": [
        -1,
        -0.99933302402496338,
        -0.99888300895690918
      ],
      "type": "VEC3"
    },
    {
      "bufferView": 3,
      "byteOffset": 119392,
      "componentType": 5126,
      "count": 5682,
      "max": [
        0,
        0,
        0,
        1
      ],
      "min": [
        0,
        0,
        0,
        1
      ],
      "type": "VEC4"
    },
    {
      "bufferView": 3,
      "byteOffset": 210304,
      "componentType": 5126,
      "count": 5682,
      "max": [
        0.17647059261798859,
        0.88235294818878174,
        0.7607843279838562,
        1
      ],
      "min": [
        0.17647059261798859,
        0.88235294818878174,
        0.7607843279838562,
        1
      ],
      "type": "VEC4"
    },
    {
      "bufferView": 1,
      "byteOffset": 29848,
      "componentType": 5126,
      "count": 5682,
      "max": [
        0,
        0
      ],
      "min": [
        0,
        0
      ],
      "type": "VEC2"
    },
    {
      "bufferView": 0,
      "byteOffset": 89544,
      "componentType": 5125,
      "count": 34092,
      "max": [
        5681
      ],
      "min": [
        0
      ],
      "type": "SCALAR"
    },
    {
      "bufferView": 2,
      "byteOffset": 225912,
      "componentType": 5126,
      "count": 5134,
      "max": [
        74.983329772949219,
        74.945884704589844,
        27.555149078369141
      ],
      "min": [
        -74.999610900878906,
        -74.945884704589844,
        -27.555149078369141
      ],
      "type": "VEC3"
    },
    {
      "bufferView": 2,
      "byteOffset": 287520,
      "componentType": 5126,
      "count": 5134,
      "max": [
        1,
        0.99977999925613403,
        0.99939423799514771
      ],
      "min": [
        -1,
        -0.99977999925613403,
        -0.99939423799514771
      ],
      "type": "VEC3"
    },
    {
      "bufferView": 3,
      "byteOffset": 301216,
      "componentType": 5126,
      "count": 5134,
      "max": [
        0,
        0,
        0,
        1
      ],
      "min": [
        0,
        0,
        0,
        1
      ],
      "type": "VEC4"
    },
    {
      "bufferView": 3,
      "byteOffset": 383360,
      "componentType": 5126,
      "count": 5134,
      "max": [
        0.17647059261798859,
        0.88235294818878174,
        0.7607843279838562,
        1
      ],
      "min": [
        0.17647059261798859,
        0.88235294818878174,
        0.7607843279838562,
        1
      ],
      "type": "VEC4"
    },
    {
      "bufferView": 1,
      "byteOffset": 75304,
      "componentType": 5126,
      "count": 5134,
      "max": [
        0,
        0
      ],
      "min": [
        0,
        0
      ],
      "type": "VEC2"
    },
    {
      "bufferView": 0,
      "byteOffset": 225912,
      "componentType": 5125,
      "count": 30804,
      "max": [
        5133
      ],
      "min": [
        0
      ],
      "type": "SCALAR"
    }
  ],
  "asset": {
    "extras": {
      "author": "◄ K H Λ L Ξ D ► (https://sketchfab.com/KCDZN)",
      "license": "CC-BY-NC-ND-4.0 (http://creativecommons.org/licenses/by-nc-nd/4.0/)",
      "source": "https://sketchfab.com/3d-models/the-third-eye-ambrosia-c2b43daac73b4373a223f395abfb1585",
      "title": "The Third Eye - Ambrosia"
    },
    "generator": "Sketchfab-5.63.0",
    "version": "2.0"
  },
  "bufferViews": [
    {
      "buffer": 0,
      "byteLength": 349128,
      "byteOffset": 0,
      "name": "floatBufferViews",
      "target": 34963
    },
    {
      "buffer": 0,
      "byteLength": 116376,
      "byteOffset": 349128,
      "byteStride": 8,
      "name": "floatBufferViews",
      "target": 34962
    },
    {
      "buffer": 0,
      "byteLength": 349128,
      "byteOffset": 465504,
      "byteStride": 12,
      "name": "floatBufferViews",
      "target": 34962
    },
    {
      "buffer": 0,
      "byteLength": 465504,
      "byteOffset": 814632,
      "byteStride": 16,
      "name": "floatBufferViews",
      "target": 34962
    }
  ],
  "buffers": [
    {
      "byteLength": 1280136,
      "uri": "scene.bin"
    }
  ],
  "materials": [
    {
      "doubleSided": true,
      "emissiveFactor": [
        0,
        0,
        0
      ],
      "name": "material_0",
      "pbrMetallicRoughness": {
        "baseColorFactor": [
          0.792157,
          0.819608,
          0.93333299999999997,
          1
        ],
        "metallicFactor": 0,
        "roughnessFactor": 0.59999999999999998
      }
    },
    {
      "doubleSided": true,
      "emissiveFactor": [
        0,
        0,
        0
      ],
      "name": "material_1",
      "pbrMetallicRoughness": {
        "baseColorFactor": [
          0.792157,
          0.819608,
          0.93333299999999997,
          1
        ],
        "metallicFactor": 0,
        "roughnessFactor": 0.59999999999999998
      }
    },
    {
      "doubleSided": true,
      "emissiveFactor": [
        0,
        0,
        0
      ],
      "name": "material_2",
      "pbrMetallicRoughness": {
        "baseColorFactor": [
          0.792157,
          0.819608,
          0.93333299999999997,
          1
        ],
        "metallicFactor": 0,
        "roughnessFactor": 0.59999999999999998
      }
    }
  ],
  "meshes": [
    {
      "primitives": [
        {
          "attributes": {
            "COLOR_0": 3,
            "NORMAL": 1,
            "POSITION": 0,
            "TANGENT": 2,
            "TEXCOORD_0": 4
          },
          "indices": 5,
          "material": 2,
          "mode": 4
        }
      ]
    },
    {
      "primitives": [
        {
          "attributes": {
            "COLOR_0": 9,
            "NORMAL": 7,
            "POSITION": 6,
            "TANGENT": 8,
            "TEXCOORD_0": 10
          },
          "indices": 11,
          "material": 1,
          "mode": 4
        }
      ]
    },
    {
      "primitives": [
        {
          "attributes": {
            "COLOR_0": 15,
            "NORMAL": 13,
            "POSITION": 12,
            "TANGENT": 14,
            "TEXCOORD_0": 16
          },
          "indices": 17,
          "material": 0,
          "mode": 4
        }
      ]
    }
  ],
  "nodes": [
    {
      "children": [
        1
      ],
      "name": "RootNode (gltf orientation matrix)",
      "rotation": [
        -0.70710678118654746,
        -0,
        -0,
        0.70710678118654757
      ]
    },
    {
      "children": [
        2
      ],
      "matrix": [
        0,
        0.95366626977920532,
        -0.30086657404899597,
        0,
        -1,
        0,
        0,
        0,
        0,
        0.30086657404899597,
        0.95366626977920532,
        0,
        -0.009136199951171875,
        0.0085844919085502625,
        -0.0027290042489767075,
        1
      ],
      "name": "RootNode (model correction matrix)"
    },
    {
      "children": [
        3,
        4,
        5
      ],
      "matrix": [
        1,
        0,
        0,
        0,
        0,
        0,
        1,
        0,
        0,
        -1,
        0,
        0,
        0,
        0,
        0,
        1
      ],
      "name": "currentmodel.wrl.cleaner.materialmerger.gles"
    },
    {
      "mesh": 0,
      "name": ""
    },
    {
      "mesh": 1,
      "name": ""
    },
    {
      "mesh": 2,
      "name": ""
    }
  ],
  "scene": 0,
  "scenes": [
    {
      "name": "OSG_Scene",
      "nodes": [
        0
      ]
    }
  ]
}

